REM DIRINDEX 1\5,1\2\6,1\2\7,1\3\8,1\3\9,1\4\10,1\4\11,1\4\12
REM DIRNAME cjc026,folder01,folder02,folder03,folder04,folder05,folder06,folder07,folder08,folder09,folder10,folder11
TITLE ""
FILE "EJE_DB3000_5th_5C_07.mp3" MP3
  TRACK 01 AUDIO
    TITLE "0:"
    INDEX 01 00:00:00
  TRACK 02 AUDIO
    TITLE "10:cjc026_10362"
    INDEX 01 00:00:08
  TRACK 03 AUDIO
    TITLE "0:"
    INDEX 01 00:01:24
  TRACK 04 AUDIO
    TITLE "11:cjc026_10363"
    INDEX 01 00:01:62
  TRACK 05 AUDIO
    TITLE "0:"
    INDEX 01 00:03:55
  TRACK 06 AUDIO
    TITLE "12:cjc026_10364"
    INDEX 01 00:04:15
  TRACK 07 AUDIO
    TITLE "0:"
    INDEX 01 00:05:32
  TRACK 08 AUDIO
    TITLE "10:cjc026_10365"
    INDEX 01 00:05:67
  TRACK 09 AUDIO
    TITLE "0:"
    INDEX 01 00:07:20
  TRACK 10 AUDIO
    TITLE "11:cjc026_10366"
    INDEX 01 00:07:55
  TRACK 11 AUDIO
    TITLE "0:"
    INDEX 01 00:09:72
  TRACK 12 AUDIO
    TITLE "12:cjc026_10367"
    INDEX 01 00:10:30
  TRACK 13 AUDIO
    TITLE "0:"
    INDEX 01 00:11:55
  TRACK 14 AUDIO
    TITLE "10:cjc026_10368"
    INDEX 01 00:12:18
  TRACK 15 AUDIO
    TITLE "0:"
    INDEX 01 00:13:42
  TRACK 16 AUDIO
    TITLE "11:cjc026_10369"
    INDEX 01 00:14:05
  TRACK 17 AUDIO
    TITLE "0:"
    INDEX 01 00:16:12
  TRACK 18 AUDIO
    TITLE "12:cjc026_10370"
    INDEX 01 00:16:47
  TRACK 19 AUDIO
    TITLE "0:"
    INDEX 01 00:18:00
  TRACK 20 AUDIO
    TITLE "10:cjc026_10371"
    INDEX 01 00:18:35
  TRACK 21 AUDIO
    TITLE "0:"
    INDEX 01 00:19:73
  TRACK 22 AUDIO
    TITLE "11:cjc026_10372"
    INDEX 01 00:20:36
  TRACK 23 AUDIO
    TITLE "0:"
    INDEX 01 00:22:32
  TRACK 24 AUDIO
    TITLE "12:cjc026_10373"
    INDEX 01 00:22:67
  TRACK 25 AUDIO
    TITLE "0:"
    INDEX 01 00:24:30
  TRACK 26 AUDIO
    TITLE "10:cjc026_10374"
    INDEX 01 00:24:65
  TRACK 27 AUDIO
    TITLE "0:"
    INDEX 01 00:26:21
  TRACK 28 AUDIO
    TITLE "11:cjc026_10375"
    INDEX 01 00:26:58
  TRACK 29 AUDIO
    TITLE "0:"
    INDEX 01 00:28:62
  TRACK 30 AUDIO
    TITLE "12:cjc026_10376"
    INDEX 01 00:29:25
  TRACK 31 AUDIO
    TITLE "0:"
    INDEX 01 00:30:55
  TRACK 32 AUDIO
    TITLE "10:cjc026_10377"
    INDEX 01 00:31:15
  TRACK 33 AUDIO
    TITLE "0:"
    INDEX 01 00:32:40
  TRACK 34 AUDIO
    TITLE "11:cjc026_10378"
    INDEX 01 00:32:73
  TRACK 35 AUDIO
    TITLE "0:"
    INDEX 01 00:34:69
  TRACK 36 AUDIO
    TITLE "12:cjc026_10379"
    INDEX 01 00:35:29
  TRACK 37 AUDIO
    TITLE "0:"
    INDEX 01 00:36:54
  TRACK 38 AUDIO
    TITLE "10:cjc026_10380"
    INDEX 01 00:37:11
  TRACK 39 AUDIO
    TITLE "0:"
    INDEX 01 00:38:36
  TRACK 40 AUDIO
    TITLE "11:cjc026_10381"
    INDEX 01 00:38:74
  TRACK 41 AUDIO
    TITLE "0:"
    INDEX 01 00:41:27
  TRACK 42 AUDIO
    TITLE "12:cjc026_10382"
    INDEX 01 00:41:65
  TRACK 43 AUDIO
    TITLE "0:"
    INDEX 01 00:43:12
  TRACK 44 AUDIO
    TITLE "10:cjc026_10383"
    INDEX 01 00:43:50
  TRACK 45 AUDIO
    TITLE "0:"
    INDEX 01 00:44:72
  TRACK 46 AUDIO
    TITLE "11:cjc026_10384"
    INDEX 01 00:45:35
  TRACK 47 AUDIO
    TITLE "0:"
    INDEX 01 00:47:60
  TRACK 48 AUDIO
    TITLE "12:cjc026_10385"
    INDEX 01 00:48:20
  TRACK 49 AUDIO
    TITLE "0:"
    INDEX 01 00:49:45
  TRACK 50 AUDIO
    TITLE "10:cjc026_10386"
    INDEX 01 00:50:05
  TRACK 51 AUDIO
    TITLE "0:"
    INDEX 01 00:51:06
  TRACK 52 AUDIO
    TITLE "11:cjc026_10387"
    INDEX 01 00:51:41
  TRACK 53 AUDIO
    TITLE "0:"
    INDEX 01 00:53:26
  TRACK 54 AUDIO
    TITLE "12:cjc026_10388"
    INDEX 01 00:53:61
  TRACK 55 AUDIO
    TITLE "0:"
    INDEX 01 00:54:62
  TRACK 56 AUDIO
    TITLE "10:cjc026_10389"
    INDEX 01 00:55:22
  TRACK 57 AUDIO
    TITLE "0:"
    INDEX 01 00:56:28
  TRACK 58 AUDIO
    TITLE "11:cjc026_10390"
    INDEX 01 00:56:66
  TRACK 59 AUDIO
    TITLE "0:"
    INDEX 01 00:58:10
  TRACK 60 AUDIO
    TITLE "12:cjc026_10391"
    INDEX 01 00:58:51
  TRACK 61 AUDIO
    TITLE "0:"
    INDEX 01 00:59:57
  TRACK 62 AUDIO
    TITLE "10:cjc026_10392"
    INDEX 01 01:00:19
  TRACK 63 AUDIO
    TITLE "0:"
    INDEX 01 01:01:58
  TRACK 64 AUDIO
    TITLE "11:cjc026_10393"
    INDEX 01 01:02:18
  TRACK 65 AUDIO
    TITLE "0:"
    INDEX 01 01:03:45
  TRACK 66 AUDIO
    TITLE "12:cjc026_10394"
    INDEX 01 01:04:06
  TRACK 67 AUDIO
    TITLE "0:"
    INDEX 01 01:05:44
  TRACK 68 AUDIO
    TITLE "10:cjc026_10395"
    INDEX 01 01:06:04
  TRACK 69 AUDIO
    TITLE "0:"
    INDEX 01 01:07:34
  TRACK 70 AUDIO
    TITLE "11:cjc026_10396"
    INDEX 01 01:07:72
  TRACK 71 AUDIO
    TITLE "0:"
    INDEX 01 01:09:09
  TRACK 72 AUDIO
    TITLE "12:cjc026_10397"
    INDEX 01 01:09:41
  TRACK 73 AUDIO
    TITLE "0:"
    INDEX 01 01:10:71
  TRACK 74 AUDIO
    TITLE "10:cjc026_10398"
    INDEX 01 01:11:34
  TRACK 75 AUDIO
    TITLE "0:"
    INDEX 01 01:12:54
  TRACK 76 AUDIO
    TITLE "11:cjc026_10399"
    INDEX 01 01:13:16
  TRACK 77 AUDIO
    TITLE "0:"
    INDEX 01 01:14:49
  TRACK 78 AUDIO
    TITLE "12:cjc026_10400"
    INDEX 01 01:15:09
  TRACK 79 AUDIO
    TITLE "0:"
    INDEX 01 01:16:29
  TRACK 80 AUDIO
    TITLE "10:cjc026_10401"
    INDEX 01 01:16:67
  TRACK 81 AUDIO
    TITLE "0:"
    INDEX 01 01:18:22
  TRACK 82 AUDIO
    TITLE "11:cjc026_10402"
    INDEX 01 01:18:57
  TRACK 83 AUDIO
    TITLE "0:"
    INDEX 01 01:20:31
  TRACK 84 AUDIO
    TITLE "12:cjc026_10403"
    INDEX 01 01:20:69
  TRACK 85 AUDIO
    TITLE "0:"
    INDEX 01 01:22:24
